# xmcd
#
# Track frame offsets:
#	150
#	19215
#	38977
#	60165
#	77780
#	97050
#	116780
#	138657
#	161315
#	183885
#	204859
#
# Disc length: 2889 seconds
#
# Revision: 3
# Processed by: cddbd v1.5.2PL0 Copyright (c) Steve Scherf et al.
# Submitted via: EasyCDDAExtractor 15.3.0.1
#
DISCID=8b0b470b
DTITLE=Domingo Quiñones - Mi Meta
DYEAR=1996
DGENRE=Latin
TTITLE0=Si Tu Te Vas
TTITLE1=La Muerte Duele Igual Cundo Es Por Sida
TTITLE2=Lo Reconozco
TTITLE3=Superate
TTITLE4=El Poder De Tu Amor
TTITLE5=Chica Romantica
TTITLE6=Mi Meta
TTITLE7=Tu Como Estas
TTITLE8=Perdon
TTITLE9=Soy
TTITLE10=El Me Escucho
EXTD=\n\nYEAR: 1996  ID3G:  86
EXTT0=
EXTT1=
EXTT2=
EXTT3=
EXTT4=
EXTT5=
EXTT6=
EXTT7=
EXTT8=
EXTT9=
EXTT10=
PLAYORDER=
